<svg width="100" height="100" viewBox="0 0 100 100" fill="none" xmlns="http://www.w3.org/2000/svg">
<g clip-path="url(#clip0_4_65)">
<path d="M73.0125 63.925C70.7125 63.925 68.8458 62.0625 68.8458 59.7625C68.8458 57.4625 70.7083 55.5958 73.0083 55.5958C75.3083 55.5958 77.175 57.4583 77.175 59.7583C77.175 62.0583 75.3125 63.9208 73.0125 63.925ZM26.9875 63.925C24.6875 63.925 22.8208 62.0625 22.8208 59.7625C22.8208 57.4625 24.6833 55.5958 26.9833 55.5958C29.2833 55.5958 31.15 57.4583 31.15 59.7583C31.15 62.0583 29.2875 63.9208 26.9875 63.925ZM74.5042 38.8417L82.825 24.4292C83.3042 23.6 83.0208 22.5417 82.1917 22.0625C81.3625 21.5833 80.3042 21.8667 79.825 22.6958L71.4 37.2917C64.9583 34.35 57.7208 32.7125 50 32.7125C42.2792 32.7125 35.0417 34.35 28.5958 37.2875L20.1708 22.6958C19.6917 21.8667 18.6333 21.5833 17.8042 22.0583C16.9792 22.5375 16.6917 23.5958 17.1708 24.425L25.4917 38.8417C11.2 46.6125 1.42918 61.0792 -0.00415039 78.175H99.9958C98.5667 61.0792 88.7958 46.6125 74.5042 38.8417Z" fill="#373737"/>
</g>
<defs>
<clipPath id="clip0_4_65">
<rect width="100" height="100" fill="white"/>
</clipPath>
</defs>
</svg>
