<svg width="30" height="30" viewBox="0 0 30 30" fill="none" xmlns="http://www.w3.org/2000/svg">
<g clip-path="url(#clip0_4_57)">
<path d="M0 15C0 17.9667 0.879735 20.8668 2.52796 23.3336C4.17618 25.8003 6.51886 27.7229 9.25975 28.8582C12.0006 29.9935 15.0166 30.2906 17.9264 29.7118C20.8361 29.133 23.5088 27.7044 25.6066 25.6066C27.7044 23.5088 29.133 20.8361 29.7118 17.9264C30.2906 15.0166 29.9935 12.0006 28.8582 9.25975C27.7229 6.51886 25.8003 4.17618 23.3336 2.52796C20.8668 0.879735 17.9667 0 15 0C11.0231 0.00430135 7.21026 1.58604 4.39815 4.39815C1.58604 7.21026 0.00430135 11.0231 0 15H0ZM27.5 15C27.5 17.4723 26.7669 19.889 25.3934 21.9446C24.0199 24.0002 22.0676 25.6024 19.7835 26.5485C17.4995 27.4946 14.9861 27.7421 12.5614 27.2598C10.1366 26.7775 7.90932 25.587 6.16117 23.8388C4.41301 22.0907 3.2225 19.8634 2.74018 17.4386C2.25787 15.0139 2.50541 12.5005 3.45151 10.2165C4.3976 7.93238 5.99976 5.98015 8.05537 4.60663C10.111 3.23311 12.5277 2.5 15 2.5C18.3141 2.50364 21.4914 3.82177 23.8348 6.16519C26.1782 8.5086 27.4964 11.6859 27.5 15V15Z" fill="#373737" fill-opacity="0.7"/>
<path d="M20 15C20.001 15.915 19.6665 16.7986 19.06 17.4837C18.6963 17.8925 18.3425 18.28 18.0888 18.5337L14.5588 22.125C14.4457 22.2498 14.3086 22.3505 14.1557 22.4211C14.0028 22.4916 13.8372 22.5305 13.6689 22.5355C13.5006 22.5404 13.333 22.5113 13.1762 22.4499C13.0194 22.3885 12.8766 22.296 12.7564 22.178C12.6363 22.06 12.5412 21.919 12.4769 21.7633C12.4126 21.6077 12.3804 21.4407 12.3822 21.2723C12.3841 21.1039 12.4199 20.9376 12.4876 20.7834C12.5554 20.6292 12.6535 20.4903 12.7763 20.375L16.3125 16.775C16.5463 16.54 16.8638 16.19 17.1875 15.8262C17.3889 15.5979 17.5001 15.3039 17.5001 14.9994C17.5001 14.6949 17.3889 14.4009 17.1875 14.1725C16.865 13.81 16.5475 13.46 16.3213 13.2325L12.7763 9.625C12.6535 9.50969 12.5554 9.37078 12.4876 9.21659C12.4199 9.0624 12.3841 8.89612 12.3822 8.72773C12.3804 8.55933 12.4126 8.3923 12.4769 8.23666C12.5412 8.08102 12.6363 7.93998 12.7564 7.822C12.8766 7.70402 13.0194 7.61154 13.1762 7.55011C13.333 7.48868 13.5006 7.45957 13.6689 7.46452C13.8372 7.46947 14.0028 7.50838 14.1557 7.57892C14.3086 7.64946 14.4457 7.75017 14.5588 7.875L18.095 11.4737C18.345 11.7237 18.695 12.1075 19.0563 12.515C19.6647 13.1997 20.0006 14.084 20 15Z" fill="#373737" fill-opacity="0.7"/>
</g>
<defs>
<clipPath id="clip0_4_57">
<rect width="30" height="30" fill="white"/>
</clipPath>
</defs>
</svg>
