<svg width="30" height="30" viewBox="0 0 30 30" fill="none" xmlns="http://www.w3.org/2000/svg">
<g clip-path="url(#clip0_4_54)">
<path d="M30 15C30 12.0333 29.1203 9.13318 27.472 6.66645C25.8238 4.19971 23.4811 2.27712 20.7403 1.14181C17.9994 0.00649166 14.9834 -0.290558 12.0737 0.28822C9.16394 0.866998 6.49119 2.29561 4.3934 4.3934C2.29562 6.49119 0.867006 9.16393 0.288228 12.0736C-0.290551 14.9834 0.00649929 17.9994 1.14181 20.7403C2.27713 23.4811 4.19972 25.8238 6.66645 27.472C9.13319 29.1203 12.0333 30 15 30C18.9769 29.9957 22.7897 28.414 25.6019 25.6019C28.414 22.7897 29.9957 18.9769 30 15ZM2.50001 15C2.50001 12.5277 3.23312 10.111 4.60664 8.05537C5.98015 5.99976 7.93239 4.3976 10.2165 3.45151C12.5005 2.50541 15.0139 2.25787 17.4386 2.74018C19.8634 3.2225 22.0907 4.41301 23.8388 6.16116C25.587 7.90932 26.7775 10.1366 27.2598 12.5614C27.7421 14.9861 27.4946 17.4995 26.5485 19.7835C25.6024 22.0676 24.0002 24.0199 21.9446 25.3934C19.889 26.7669 17.4723 27.5 15 27.5C11.6859 27.4964 8.50861 26.1782 6.16519 23.8348C3.82178 21.4914 2.50365 18.3141 2.50001 15Z" fill="#373737" fill-opacity="0.7"/>
<path d="M10 15C9.99906 14.085 10.3335 13.2014 10.94 12.5163C11.3038 12.1075 11.6575 11.72 11.9113 11.4663L15.4413 7.875C15.6765 7.65399 15.9881 7.53255 16.3109 7.5361C16.6336 7.53965 16.9425 7.66791 17.1728 7.89404C17.4032 8.12018 17.5371 8.42664 17.5466 8.74928C17.5561 9.07192 17.4404 9.38573 17.2238 9.625L13.6875 13.225C13.4538 13.46 13.1363 13.81 12.8125 14.1738C12.6111 14.4021 12.4999 14.6961 12.4999 15.0006C12.4999 15.3051 12.6111 15.5992 12.8125 15.8275C13.135 16.19 13.4525 16.54 13.6788 16.7675L17.2238 20.375C17.4404 20.6143 17.5561 20.9281 17.5466 21.2507C17.5371 21.5734 17.4032 21.8798 17.1728 22.106C16.9425 22.3321 16.6336 22.4604 16.3109 22.4639C15.9881 22.4675 15.6765 22.346 15.4413 22.125L11.905 18.5275C11.655 18.2775 11.305 17.8938 10.9438 17.4863C10.335 16.8012 9.99914 15.9164 10 15Z" fill="#373737" fill-opacity="0.7"/>
</g>
<defs>
<clipPath id="clip0_4_54">
<rect width="30" height="30" fill="white"/>
</clipPath>
</defs>
</svg>
