<svg width="100" height="100" viewBox="0 0 100 100" fill="none" xmlns="http://www.w3.org/2000/svg">
<g clip-path="url(#clip0_4_67)">
<path d="M79.7875 0.00415039H20.1958C9.0375 0.00415039 0 9.04165 0 20.2041V79.8083C0 90.9583 9.0375 99.9958 20.1958 99.9958H79.8C90.95 99.9958 99.9958 90.9583 99.9958 79.8V20.2041C99.9875 9.04165 90.95 0.00415039 79.7875 0.00415039ZM27.6458 79.1708C26.3958 81.3583 23.6083 82.0958 21.4208 80.8458C19.2333 79.5958 18.4958 76.8083 19.7458 74.6208L22.9958 68.9958C26.6708 67.8583 29.6542 68.7333 32.0208 71.5833L27.6458 79.1708ZM59.2417 66.9H17.875C15.35 66.9 13.325 64.875 13.325 62.35C13.325 59.825 15.35 57.8 17.875 57.8H29.4708L44.3208 32.0667L39.6833 24.0166C38.4333 21.8291 39.1708 19.0667 41.3583 17.7917C43.5458 16.5417 46.3083 17.2792 47.5833 19.4667L49.5708 22.9791L51.5958 19.4792C52.8458 17.2917 55.6333 16.5541 57.8208 17.8041C60.0083 19.0541 60.7458 21.8416 59.4958 24.025L39.9875 57.7958H54.1C58.6667 57.8 61.2292 63.175 59.2417 66.9ZM81.5292 66.925H74.9542L79.3917 74.6208C80.6417 76.8083 79.9042 79.5708 77.7167 80.8458C75.5292 82.0958 72.7667 81.3583 71.4917 79.1708C64.0208 66.2083 58.4042 56.5125 54.6833 50.05C50.8708 43.475 53.5958 36.875 56.2833 34.6375C59.2708 39.7625 63.7333 47.5 69.6917 57.825H81.5292C84.0542 57.825 86.0792 59.85 86.0792 62.375C86.075 64.9 84.0542 66.925 81.5292 66.925Z" fill="#373737"/>
</g>
<defs>
<clipPath id="clip0_4_67">
<rect width="100" height="100" fill="white"/>
</clipPath>
</defs>
</svg>
